<?xml version="1.0" standalone="no"?>
<!DOCTYPE svg PUBLIC "-//W3C//DTD SVG 20010904//EN"
 "http://www.w3.org/TR/2001/REC-SVG-20010904/DTD/svg10.dtd">
<svg version="1.0" xmlns="http://www.w3.org/2000/svg"
 width="1024.000000pt" height="1024.000000pt" viewBox="0 0 1024.000000 1024.000000"
 preserveAspectRatio="xMidYMid meet">

<g transform="translate(0.000000,1024.000000) scale(0.100000,-0.100000)"
fill="#000000" stroke="none">
<path d="M0 5120 l0 -5120 449 0 c350 0 450 3 454 13 4 9 6 9 6 0 1 -10 432
-13 2121 -13 l2120 0 3 178 2 177 3 -177 2 -178 2184 0 2185 0 4 42 4 43 1
-42 2 -43 350 0 350 0 0 2404 c0 2282 -1 2405 -17 2409 -17 4 -17 5 0 6 16 1
17 137 17 2711 l0 2710 -5120 0 -5120 0 0 -5120z m5157 4798 c-3 -8 -6 -5 -6
6 -1 11 2 17 5 13 3 -3 4 -12 1 -19z m0 -240 c-3 -8 -6 -5 -6 6 -1 11 2 17 5
13 3 -3 4 -12 1 -19z m0 -70 c-3 -8 -6 -5 -6 6 -1 11 2 17 5 13 3 -3 4 -12 1
-19z m0 -200 c-3 -7 -5 -2 -5 12 0 14 2 19 5 13 2 -7 2 -19 0 -25z m0 -65 c-3
-10 -5 -4 -5 12 0 17 2 24 5 18 2 -7 2 -21 0 -30z m3 -103 c0 -38 -4 -70 -9
-70 -5 0 -8 8 -6 18 2 9 4 41 4 70 1 28 3 52 6 52 3 0 5 -31 5 -70z m-4217
-44 c12 -18 13 -27 2 -53 -24 -57 -88 -49 -98 12 -8 48 -1 63 31 67 37 5 48 0
65 -26z m8627 12 c26 -29 26 -63 -2 -82 -33 -23 -57 -20 -68 10 -17 43 -12 74
13 84 32 13 34 12 57 -12z m-6343 -34 c-3 -3 -12 -4 -19 -1 -8 3 -5 6 6 6 11
1 17 -2 13 -5z m131 -1 c-21 -2 -57 -2 -80 0 -24 2 -7 4 37 4 44 0 63 -2 43
-4z m120 0 c-16 -2 -40 -2 -55 0 -16 2 -3 4 27 4 30 0 43 -2 28 -4z m619 1
c-3 -3 -12 -4 -19 -1 -8 3 -5 6 6 6 11 1 17 -2 13 -5z m3256 -1 c-34 -2 -93
-2 -130 0 -37 2 -9 3 62 3 72 0 102 -1 68 -3z m1130 0 c-13 -2 -33 -2 -45 0
-13 2 -3 4 22 4 25 0 35 -2 23 -4z m395 0 c-21 -2 -57 -2 -80 0 -24 2 -7 4 37
4 44 0 63 -2 43 -4z m69 1 c-3 -3 -12 -4 -19 -1 -8 3 -5 6 6 6 11 1 17 -2 13
-5z m251 -1 c-42 -2 -114 -2 -160 0 -46 1 -11 3 77 3 88 0 125 -2 83 -3z
m-4041 -145 c-2 -18 -4 -4 -4 32 0 36 2 50 4 33 2 -18 2 -48 0 -65z m1366
-324 c750 0 1371 -3 1380 -7 13 -5 16 -11 9 -24 -6 -11 -6 -42 -1 -78 8 -55 9
-1135 1 -1902 l-3 -312 -62 26 c-34 14 -73 37 -87 51 l-25 24 48 -26 c26 -14
55 -26 65 -25 9 0 -4 11 -30 23 -26 12 -66 39 -90 58 -24 20 -55 38 -68 40
-28 4 -40 40 -58 176 -10 72 -78 292 -125 402 -24 55 -111 203 -163 276 -54
75 -219 232 -302 287 -31 21 -104 62 -162 92 -165 84 -202 89 -630 83 -195 -2
-412 -2 -481 1 l-126 6 -5 -195 c-3 -107 -4 -634 -1 -1170 2 -536 1 -1026 -2
-1087 l-7 -113 -103 0 c-57 0 -106 4 -109 9 -6 10 -9 2741 -3 2747 2 3 242 10
533 16 552 11 728 5 894 -28 198 -40 353 -121 498 -259 104 -99 144 -148 245
-305 37 -58 76 -118 87 -134 19 -29 19 -29 19 240 0 148 3 402 7 564 l7 295
-2508 -3 c-1380 -1 -2509 -3 -2511 -5 -1 -1 -4 -237 -7 -524 l-4 -522 29 42
c16 23 46 67 66 97 97 146 247 300 380 389 76 51 249 115 370 137 129 23 369
28 711 15 168 -6 307 -13 308 -15 4 -4 5 -2578 2 -2691 -1 -33 -4 -49 -7 -35
l-5 25 -6 -25 c-7 -25 -9 -25 -116 -27 -61 -1 -162 -6 -225 -10 -148 -10
-1337 -10 -1347 1 -4 4 -10 48 -12 98 l-3 90 708 -2 c390 -1 724 -1 742 -1
l32 1 0 64 c0 46 -5 69 -16 81 -15 15 -19 14 -43 -9 -23 -22 -37 -26 -92 -27
-50 -1 -58 -3 -34 -9 17 -4 -149 -8 -367 -9 -233 -1 -398 3 -398 8 0 5 -30 10
-67 10 -38 1 -120 3 -183 5 -71 3 -100 1 -75 -4 25 -4 -32 -7 -145 -7 -102 0
-167 3 -145 6 l40 6 -54 7 c-56 8 -76 3 -52 -12 11 -6 13 -45 9 -203 l-5 -195
161 -6 c89 -3 775 -4 1526 -2 751 2 1426 -1 1500 -5 283 -17 506 -89 735 -237
102 -65 146 -104 224 -196 320 -378 456 -867 411 -1476 -12 -153 -33 -295 -60
-390 -23 -81 -89 -242 -121 -295 -13 -22 -31 -52 -38 -67 -20 -40 -72 -98 -65
-73 6 23 5 21 -93 -98 -31 -37 -85 -95 -121 -128 -35 -33 -62 -62 -60 -64 5
-5 165 149 223 215 50 58 50 54 1 -20 -43 -66 -220 -237 -306 -296 -137 -94
-281 -156 -470 -201 -96 -23 -130 -25 -406 -30 l-302 -5 -4 48 c-2 27 -2 703
0 1502 l5 1452 112 0 c100 0 112 -2 112 -17 -1 -10 0 -629 1 -1375 l2 -1358
133 0 c147 0 233 14 372 62 351 120 615 380 740 732 75 208 119 588 96 823
-30 306 -135 597 -286 793 -61 79 -221 231 -285 272 -156 100 -342 167 -500
183 -55 5 -706 18 -735 14 -5 -1 -444 -3 -975 -5 -531 -2 -1109 -5 -1285 -6
l-320 -3 -79 -38 c-61 -29 -82 -34 -89 -25 -5 8 -6 138 -3 303 3 160 6 369 6
466 l0 176 303 -3 c617 -5 1557 -7 1562 -3 3 4 8 1607 5 1982 l0 69 -302 -4
-303 -4 -118 -37 c-239 -76 -412 -192 -563 -381 -117 -146 -220 -345 -272
-526 -44 -150 -52 -207 -52 -352 0 -70 -2 -128 -5 -128 -3 0 -17 8 -31 17 -20
12 -50 17 -120 17 l-93 1 -8 30 c-7 28 -8 2183 -1 2190 2 2 621 5 1376 7
l1372 3 2 135 2 135 3 -135 4 -135 1362 -1z m3014 -66 c-3 -8 -6 -5 -6 6 -1
11 2 17 5 13 3 -3 4 -12 1 -19z m-2429 -276 l442 -2 0 -104 0 -103 -37 -7
c-63 -10 -540 -7 -683 5 -83 7 -422 11 -888 12 -414 0 -755 4 -758 8 -3 5 -87
8 -187 7 l-182 -2 165 -6 c323 -10 107 -15 -425 -10 -297 4 -675 2 -840 -4
-321 -11 -905 -14 -910 -6 -2 3 -7 53 -10 110 l-7 105 1938 0 c1067 0 2138 -1
2382 -3z m-1842 -360 c10 -64 11 -2630 1 -2664 -7 -26 -11 -28 -57 -28 -30 0
-50 4 -50 11 0 8 -5 8 -15 -1 -12 -10 -16 -9 -22 6 -9 22 -11 2692 -2 2714 5
12 21 14 72 12 l66 -4 7 -46z m-496 -79 c0 -88 0 -2462 0 -2584 0 -4 -26 -9
-57 -11 -32 -3 -65 -8 -74 -12 -13 -6 -17 4 -22 61 -9 90 -9 2360 0 2536 l6
137 74 0 73 0 0 -127z m253 45 c8 -100 9 -2614 1 -2643 -4 -18 -13 -20 -75
-20 -60 0 -70 3 -75 19 -8 25 -10 2698 -2 2711 3 6 37 11 76 13 l69 3 6 -83z
m-2122 -14 c-15 -28 -18 -40 -9 -45 7 -5 9 -11 6 -14 -4 -4 -11 -4 -17 0 -13
7 -15 55 -3 55 5 0 14 12 21 26 6 15 14 24 17 21 3 -3 -4 -22 -15 -43z m69 18
c0 -8 -1 -13 -3 -11 -1 2 -9 12 -16 22 -12 15 -12 17 3 11 9 -3 16 -13 16 -22z
m46 6 c5 -7 3 -8 -6 -3 -10 6 -12 4 -7 -9 4 -10 3 -15 -3 -11 -6 3 -10 -2 -11
-12 0 -10 -3 -13 -5 -6 -5 11 12 53 21 53 2 0 7 -5 11 -12z m-66 -4 c0 -7 -27
-34 -34 -34 -4 0 -1 9 6 20 12 19 28 27 28 14z m4373 -9 c-3 -9 -8 -14 -10
-11 -3 3 -2 9 2 15 9 16 15 13 8 -4z m-49 -11 c3 -8 2 -12 -4 -9 -6 3 -10 10
-10 16 0 14 7 11 14 -7z m-4354 -34 c0 -5 -4 -10 -10 -10 -5 0 -10 5 -10 10 0
6 5 10 10 10 6 0 10 -4 10 -10z m57 -5 c9 -24 -1 -27 -15 -5 -8 13 -8 20 -2
20 6 0 13 -7 17 -15z m-27 -15 c0 -5 -4 -10 -10 -10 -5 0 -10 5 -10 10 0 6 5
10 10 10 6 0 10 -4 10 -10z m85 0 c3 -5 1 -10 -4 -10 -6 0 -11 5 -11 10 0 6 2
10 4 10 3 0 8 -4 11 -10z m-155 -20 c0 -5 -4 -10 -10 -10 -5 0 -10 5 -10 10 0
6 5 10 10 10 6 0 10 -4 10 -10z m10 -25 c-7 -8 -17 -15 -23 -15 -6 0 -2 7 9
15 25 19 30 19 14 0z m6647 -1717 c-3 -8 -6 -5 -6 6 -1 11 2 17 5 13 3 -3 4
-12 1 -19z m-3469 -323 c380 -33 730 -142 962 -299 263 -179 436 -359 620
-644 149 -233 218 -396 290 -684 45 -183 60 -347 60 -669 0 -281 -20 -449 -85
-729 -41 -177 -116 -377 -136 -364 -5 3 -6 -1 -4 -8 13 -32 -151 -309 -279
-473 -96 -122 -255 -273 -402 -381 -219 -162 -476 -271 -751 -319 -127 -22
-510 -37 -866 -33 l-317 3 -2 -430 -3 -430 -2 430 -3 430 -1375 -3 -1375 -4 0
84 c0 46 -3 239 -7 430 l-6 347 229 3 c126 2 548 5 938 6 391 1 711 4 713 6 2
1 3 569 3 1262 1 692 3 1310 7 1372 l6 112 113 0 114 0 -1 -1192 c0 -656 2
-1329 6 -1494 l6 -302 -153 -6 c-84 -3 -502 -9 -928 -12 -426 -3 -777 -7 -779
-9 -2 -2 -6 -80 -8 -172 -3 -92 -10 -174 -15 -181 -8 -9 64 -12 353 -13 200 0
933 -2 1629 -4 696 -2 1330 1 1410 5 266 17 457 67 695 185 161 80 276 165
426 317 281 282 445 583 528 963 36 164 44 280 44 605 0 272 -3 334 -21 455
-51 332 -157 603 -338 861 -125 179 -240 296 -444 451 -222 169 -625 292 -960
294 -52 0 -119 3 -147 6 l-53 4 0 125 0 124 68 -5 c37 -3 145 -12 240 -20z
m-27 -336 c261 -26 568 -128 765 -254 124 -79 283 -246 420 -440 191 -271 333
-634 365 -933 18 -178 7 -667 -20 -817 -30 -171 -55 -271 -96 -377 -59 -153
-181 -367 -206 -361 -4 2 -6 -3 -3 -11 13 -33 -289 -369 -399 -444 -164 -113
-317 -188 -482 -237 -229 -69 -118 -65 -1941 -71 l-1654 -5 0 99 0 99 167 6
c91 4 747 7 1457 7 1468 0 1637 5 1812 50 218 56 411 154 562 285 77 67 221
224 283 310 116 160 215 410 255 644 25 146 44 389 44 561 0 219 -57 515 -141
725 -76 190 -231 437 -349 555 -247 249 -542 374 -995 421 -60 6 -113 16 -117
23 -4 6 -8 48 -8 94 l0 82 89 0 c49 0 135 -5 192 -11z m3496 -561 c-2 -18 -4
-6 -4 27 0 33 2 48 4 33 2 -15 2 -42 0 -60z m-8605 -89 c6 -4 2 -15 -10 -27
l-20 -20 -5 20 c-3 11 -1 32 5 47 10 23 12 24 16 6 2 -11 9 -23 14 -26z m8622
25 c22 -22 20 -51 -5 -57 -15 -4 -19 -11 -14 -25 3 -11 1 -23 -5 -27 -6 -4
-10 -3 -9 2 6 33 -3 63 -18 63 -16 1 -16 2 -2 13 8 7 18 20 22 30 8 21 11 21
31 1z m-4589 -24 l64 0 -1 -1495 -1 -1495 -79 0 -78 0 -1 38 c-1 29 0 1015 1
2871 0 81 2 92 16 87 9 -3 44 -6 79 -6z m-3916 -16 c2 -2 -10 -4 -27 -4 -17 0
-34 4 -37 10 -5 9 53 3 64 -6z m3723 -506 c2 -288 2 -960 0 -1495 l-3 -971
-72 -4 c-40 -2 -74 -2 -77 0 -8 5 -12 2815 -5 2910 l7 82 73 0 74 0 3 -522z
m500 232 c9 -375 7 -2675 -2 -2690 -4 -7 -37 -12 -76 -13 l-69 -2 -6 75 c-9
103 -11 2346 -2 2664 l6 257 71 -3 71 -3 7 -285z m4063 280 c3 -5 1 -10 -4
-10 -6 0 -11 5 -11 10 0 6 2 10 4 10 3 0 8 -4 11 -10z m30 0 c3 -5 1 -10 -4
-10 -6 0 -11 5 -11 10 0 6 2 10 4 10 3 0 8 -4 11 -10z m710 0 c3 -5 1 -10 -4
-10 -6 0 -11 5 -11 10 0 6 2 10 4 10 3 0 8 -4 11 -10z m60 0 c3 -5 1 -10 -4
-10 -6 0 -11 5 -11 10 0 6 2 10 4 10 3 0 8 -4 11 -10z m-10042 -7 c-7 -2 -19
-2 -25 0 -7 3 -2 5 12 5 14 0 19 -2 13 -5z m50 0 c-7 -2 -19 -2 -25 0 -7 3 -2
5 12 5 14 0 19 -2 13 -5z m37 -3 c0 -5 -2 -10 -4 -10 -3 0 -8 5 -11 10 -3 6
-1 10 4 10 6 0 11 -4 11 -10z m35 0 c3 -5 2 -10 -4 -10 -5 0 -13 5 -16 10 -3
6 -2 10 4 10 5 0 13 -4 16 -10z m65 0 c0 -5 -5 -10 -11 -10 -5 0 -7 5 -4 10 3
6 8 10 11 10 2 0 4 -4 4 -10z m60 -1 c0 -5 -9 -9 -20 -9 -11 0 -20 4 -20 8 0
4 9 8 20 9 11 1 20 -2 20 -8z m50 1 c0 -5 -7 -10 -16 -10 -8 0 -12 5 -9 10 3
6 10 10 16 10 5 0 9 -4 9 -10z m35 0 c-3 -5 -10 -10 -16 -10 -5 0 -9 5 -9 10
0 6 7 10 16 10 8 0 12 -4 9 -10z m45 6 c0 -2 -7 -6 -15 -10 -8 -3 -15 -1 -15
4 0 6 7 10 15 10 8 0 15 -2 15 -4z m50 0 c0 -2 -9 -6 -20 -9 -11 -3 -18 -1
-14 4 5 9 34 13 34 5z m47 -2 c-3 -3 -12 -4 -19 -1 -8 3 -5 6 6 6 11 1 17 -2
13 -5z m191 -1 c-26 -2 -71 -2 -100 0 -29 2 -8 3 47 3 55 0 79 -1 53 -3z m85
0 c-7 -2 -19 -2 -25 0 -7 3 -2 5 12 5 14 0 19 -2 13 -5z m500 0 c-51 -2 -136
-2 -190 0 -54 1 -12 3 92 3 105 0 149 -2 98 -3z m170 0 c-7 -2 -21 -2 -30 0
-10 3 -4 5 12 5 17 0 24 -2 18 -5z m44 1 c-3 -3 -12 -4 -19 -1 -8 3 -5 6 6 6
11 1 17 -2 13 -5z m101 -1 c-10 -2 -26 -2 -35 0 -10 3 -2 5 17 5 19 0 27 -2
18 -5z m155 0 c-7 -2 -21 -2 -30 0 -10 3 -4 5 12 5 17 0 24 -2 18 -5z m170 0
c-29 -2 -77 -2 -105 0 -29 2 -6 3 52 3 58 0 81 -1 53 -3z m84 1 c-3 -3 -12 -4
-19 -1 -8 3 -5 6 6 6 11 1 17 -2 13 -5z m5976 -1 c-7 -2 -19 -2 -25 0 -7 3 -2
5 12 5 14 0 19 -2 13 -5z m102 -3 c3 -5 1 -10 -4 -10 -6 0 -11 5 -11 10 0 6 2
10 4 10 3 0 8 -4 11 -10z m80 0 c-4 -6 -17 -9 -30 -7 -40 5 -41 17 -1 17 23 0
35 -4 31 -10z m344 6 c-8 -9 -329 -12 -329 -4 0 4 75 8 167 8 91 0 164 -2 162
-4z m489 -3 c-75 -2 -201 -2 -280 0 -79 1 -17 3 137 3 154 0 218 -2 143 -3z
m169 1 c-3 -3 -12 -4 -19 -1 -8 3 -5 6 6 6 11 1 17 -2 13 -5z m461 -1 c-10 -2
-28 -2 -40 0 -13 2 -5 4 17 4 22 1 32 -1 23 -4z m329 0 c-20 -2 -52 -2 -70 0
-17 2 0 4 38 4 39 0 53 -2 32 -4z m-480 -170 c-3 -10 -5 -4 -5 12 0 17 2 24 5
18 2 -7 2 -21 0 -30z m-5845 -628 c3 -60 8 -154 10 -207 l4 -97 -63 45 c-35
24 -96 61 -136 81 -74 39 -68 38 -266 46 l-73 3 3 -643 c2 -354 1 -643 -3
-643 -5 0 -8 8 -8 17 0 13 -3 14 -12 5 -7 -7 -21 -12 -32 -11 -20 0 -20 1 -1
8 15 6 11 9 -20 14 -59 10 -114 8 -137 -4 -11 -6 -22 -9 -24 -6 -5 5 -5 1081
0 1186 l4 73 -112 -4 c-98 -3 -117 -7 -166 -32 -88 -46 -204 -118 -213 -133
-4 -7 -15 -13 -23 -13 -14 0 -15 26 -12 208 l3 207 565 2 c311 2 576 4 590 6
14 3 45 4 70 3 l45 -1 7 -110z m5845 -1037 c-3 -8 -6 -5 -6 6 -1 11 2 17 5 13
3 -3 4 -12 1 -19z m-8630 -420 c-3 -7 -5 -2 -5 12 0 14 2 19 5 13 2 -7 2 -19
0 -25z m0 -1250 c-3 -8 -6 -5 -6 6 -1 11 2 17 5 13 3 -3 4 -12 1 -19z m8667
-687 c26 -29 18 -92 -13 -108 -21 -10 -27 -9 -43 12 -22 28 -23 63 -2 93 19
27 36 28 58 3z m-8630 -17 c22 -21 21 -71 -2 -83 -21 -11 -68 -3 -82 14 -16
19 -3 59 23 72 32 15 44 15 61 -3z m4253 -60 c-3 -3 -12 -4 -19 -1 -8 3 -5 6
6 6 11 1 17 -2 13 -5z"/>
<path d="M7880 8626 c0 -8 4 -17 9 -20 5 -4 7 3 4 14 -6 23 -13 26 -13 6z"/>
<path d="M2842 7328 c-14 -18 -66 -125 -55 -113 14 14 76 125 70 125 -3 0 -9
-6 -15 -12z"/>
<path d="M7884 7170 c0 -52 1 -74 3 -47 2 26 2 68 0 95 -2 26 -3 4 -3 -48z"/>
<path d="M2563 4973 c9 -2 25 -2 35 0 9 3 1 5 -18 5 -19 0 -27 -2 -17 -5z"/>
<path d="M4315 4970 l-20 -9 20 0 c11 0 27 4 35 9 13 9 13 10 0 9 -8 0 -24 -4
-35 -9z"/>
<path d="M4393 4973 c9 -2 23 -2 30 0 6 3 -1 5 -18 5 -16 0 -22 -2 -12 -5z"/>
<path d="M7089 2818 c-9 -24 -26 -67 -37 -95 -30 -74 -17 -66 17 10 26 56 48
127 39 127 -2 0 -10 -19 -19 -42z"/>
<path d="M6997 2613 c-24 -40 -65 -124 -52 -108 27 33 68 106 62 111 -3 3 -7
2 -10 -3z"/>
<path d="M6575 2120 c-3 -6 1 -7 9 -4 18 7 21 14 7 14 -6 0 -13 -4 -16 -10z"/>
<path d="M6500 2070 c-9 -6 -10 -10 -3 -10 6 0 15 5 18 10 8 12 4 12 -15 0z"/>
<path d="M6405 2010 c-3 -6 1 -7 9 -4 18 7 21 14 7 14 -6 0 -13 -4 -16 -10z"/>
<path d="M6365 1990 c-3 -6 1 -7 9 -4 18 7 21 14 7 14 -6 0 -13 -4 -16 -10z"/>
<path d="M6255 1949 c-90 -33 -111 -42 -75 -33 14 3 40 8 58 11 18 3 35 9 38
14 3 5 13 9 22 9 9 0 26 7 36 15 27 21 14 18 -79 -16z"/>
<path d="M4498 8173 c34 -2 90 -2 125 0 34 2 6 3 -63 3 -69 0 -97 -1 -62 -3z"/>
<path d="M4768 8173 c6 -2 18 -2 25 0 6 3 1 5 -13 5 -14 0 -19 -2 -12 -5z"/>
<path d="M5358 8173 c18 -2 45 -2 60 0 15 2 0 4 -33 4 -33 0 -45 -2 -27 -4z"/>
<path d="M7489 8169 c-10 -6 -7 -9 14 -9 29 0 35 5 14 13 -8 3 -20 1 -28 -4z"/>
<path d="M2922 8163 c37 -2 100 -2 140 0 40 1 10 3 -67 3 -77 0 -110 -1 -73
-3z"/>
<path d="M3193 8163 c26 -2 67 -2 90 0 23 2 2 3 -48 3 -49 0 -68 -1 -42 -3z"/>
<path d="M5183 5323 c9 -2 25 -2 35 0 9 3 1 5 -18 5 -19 0 -27 -2 -17 -5z"/>
<path d="M4943 5323 c9 -2 23 -2 30 0 6 3 -1 5 -18 5 -16 0 -22 -2 -12 -5z"/>
<path d="M5863 5603 c9 -2 25 -2 35 0 9 3 1 5 -18 5 -19 0 -27 -2 -17 -5z"/>
<path d="M4487 1880 c-3 -11 -1 -20 4 -20 5 0 9 9 9 20 0 11 -2 20 -4 20 -2 0
-6 -9 -9 -20z"/>
<path d="M7059 1583 c-13 -16 -12 -17 4 -4 16 13 21 21 13 21 -2 0 -10 -8 -17
-17z"/>
<path d="M7000 1545 c-19 -14 -30 -25 -24 -25 10 0 73 49 63 50 -3 0 -20 -11
-39 -25z"/>
<path d="M6810 1430 c-9 -6 -10 -10 -3 -10 6 0 15 5 18 10 8 12 4 12 -15 0z"/>
<path d="M6690 1380 c-13 -8 -13 -10 2 -10 9 0 20 5 23 10 8 13 -5 13 -25 0z"/>
<path d="M6428 1293 c6 -2 18 -2 25 0 6 3 1 5 -13 5 -14 0 -19 -2 -12 -5z"/>
<path d="M7502 2815 c0 -16 2 -22 5 -12 2 9 2 23 0 30 -3 6 -5 -1 -5 -18z"/>
<path d="M7304 2388 c-37 -63 -37 -63 -11 -33 25 28 33 45 23 45 -3 0 -8 -6
-12 -12z"/>
<path d="M7085 2092 c-44 -49 -108 -110 -143 -138 -35 -27 -71 -57 -80 -68
-15 -16 -12 -16 24 3 41 22 219 196 262 259 13 17 22 32 20 32 -2 0 -39 -40
-83 -88z"/>
<path d="M6704 1784 c-18 -14 -18 -15 4 -4 12 6 22 13 22 15 0 8 -5 6 -26 -11z"/>
<path d="M6595 1728 c-33 -18 -87 -42 -120 -55 -33 -13 -46 -21 -30 -18 44 9
166 62 195 85 34 27 25 24 -45 -12z"/>
<path d="M6380 1640 c0 -5 7 -7 15 -4 8 4 15 8 15 10 0 2 -7 4 -15 4 -8 0 -15
-4 -15 -10z"/>
</g>
</svg>
